<svg xmlns="http://www.w3.org/2000/svg" width="256" height="256" viewBox="0 0 100 100"><rect width="100" height="100" rx="20" fill="#72a2ff"></rect><path fill="#bcedfc" d="M14.00 77.36L14.00 77.36Q12.29 77.36 11.17 76.28Q10.04 75.20 10.04 73.40L10.04 73.40L10.04 22.82Q10.49 22.64 11.44 22.41Q12.38 22.19 13.46 22.19L13.46 22.19Q17.42 22.19 17.42 25.52L17.42 25.52L17.42 71.06L43.25 71.06Q44.24 72.05 44.24 74.03L44.24 74.03Q44.24 75.56 43.43 76.46Q42.62 77.36 41.27 77.36L41.27 77.36L14.00 77.36ZM70.25 72.41L70.25 72.41Q76.28 72.41 79.39 69.67Q82.49 66.92 82.49 62.60L82.49 62.60Q82.49 58.82 80.11 56.48Q77.72 54.14 72.59 52.61L72.59 52.61L64.76 50.27Q59 48.56 55.72 45.23Q52.43 41.90 52.43 36.23L52.43 36.23Q52.43 32.81 53.74 30.06Q55.04 27.32 57.47 25.43Q59.90 23.54 63.28 22.51Q66.65 21.47 70.88 21.47L70.88 21.47Q74.48 21.47 77.59 22.05Q80.69 22.64 82.99 23.68Q85.28 24.71 86.54 25.97Q87.80 27.23 87.80 28.58L87.80 28.58Q87.80 29.84 87.17 30.74Q86.54 31.64 85.55 32.18L85.55 32.18Q83.21 30.38 79.47 29.03Q75.74 27.68 71.15 27.68L71.15 27.68Q65.84 27.68 62.83 29.93Q59.81 32.18 59.81 36.23L59.81 36.23Q59.81 39.38 61.97 41.36Q64.13 43.34 69.17 44.78L69.17 44.78L74.66 46.40Q81.77 48.47 85.87 52.20Q89.96 55.94 89.96 62.60L89.96 62.60Q89.96 69.71 84.83 74.12Q79.70 78.53 70.25 78.53L70.25 78.53Q66.11 78.53 62.74 77.81Q59.36 77.09 56.98 75.92Q54.59 74.75 53.29 73.36Q51.98 71.96 51.98 70.61L51.98 70.61Q51.98 69.08 52.93 68.05Q53.87 67.01 55.13 66.56L55.13 66.56Q56.12 67.55 57.56 68.58Q59 69.62 60.89 70.47Q62.78 71.33 65.12 71.87Q67.46 72.41 70.25 72.41Z"></path></svg>